<svg width="10000" height="143" viewBox="0 0 10000 143" fill="none" xmlns="http://www.w3.org/2000/svg">
<path d="M10000 0H0V142C0 142 355.642 54.4567 588 50.5C848.947 46.0565 989.081 147.874 1250 142C1474.43 136.947 1593.09 56.4675 1817.5 50.5C2086.32 43.3513 2231.14 147.536 2500 142C2733.11 137.2 2856.87 54.254 3090 50.5C3350.18 46.3106 3489.8 144.71 3750 142C3992.03 139.479 4120.96 51.8326 4363 50.5C4614.31 49.1163 4748.69 143.869 5000 142C5238.95 140.223 5366.06 52.694 5605 50.5C5859.4 48.1641 5995.6 144.089 6250 142C6490.49 140.025 6618.51 52.266 6859 50.5C7111.86 48.6432 7247.15 144.73 7500 142C7735.08 139.461 7859.93 53.7418 8095 50.5C8353.25 46.9385 8491.72 141.027 8750 142C9015.43 143 9158.13 44.562 9423.5 50.5C9651.4 55.5996 10000 142 10000 142V0Z" fill="#032E15"/>
</svg>
