<svg width="10000" height="143" viewBox="0 0 10000 143" fill="none" xmlns="http://www.w3.org/2000/svg">
<path d="M10000 142.245H0V0.244629C0 0.244629 355.642 87.7879 588 91.7446C848.947 96.1882 989.081 -5.62975 1250 0.244629C1474.43 5.29745 1593.09 85.7771 1817.5 91.7446C2086.32 98.8933 2231.14 -5.2914 2500 0.244629C2733.11 5.04461 2856.87 87.9907 3090 91.7446C3350.18 95.9341 3489.8 -2.46507 3750 0.244629C3992.03 2.76514 4120.96 90.412 4363 91.7446C4614.31 93.1283 4748.69 -1.62413 5000 0.244629C5238.95 2.02145 5366.06 89.5506 5605 91.7446C5859.4 94.0806 5995.6 -1.84422 6250 0.244629C6490.49 2.21926 6618.51 89.9787 6859 91.7446C7111.86 93.6014 7247.15 -2.48582 7500 0.244629C7735.08 2.7832 7859.93 88.5029 8095 91.7446C8353.25 95.3061 8491.72 1.21722 8750 0.244629C9015.43 -0.754917 9158.13 97.6826 9423.5 91.7446C9651.4 86.6451 10000 0.244629 10000 0.244629V142.245Z" fill="#032E15"/>
</svg>
