<svg width="814" height="814" viewBox="0 0 814 814" fill="none" xmlns="http://www.w3.org/2000/svg">
<g clip-path="url(#clip0_484_2)">
<path d="M212.414 725.5C209.855 504 243.336 61 397.728 61C552.12 61 595.104 504 597.298 725.5" stroke="#F8F8F8" stroke-width="34"/>
<path d="M318.777 361.45L489.837 278.113" stroke="#F8F8F8" stroke-width="34" stroke-linecap="round"/>
<path d="M318.777 624.618L489.837 541.281" stroke="#F8F8F8" stroke-width="34" stroke-linecap="round"/>
<path d="M318.777 493.034L489.837 409.697" stroke="#F8F8F8" stroke-width="34" stroke-linecap="round"/>
<path d="M185 1319.82L185 714.566L233.842 734.265C240.637 737.005 248.391 735.757 253.981 731.021L288.724 701.595C296.281 695.194 307.411 695.385 314.745 702.04L341.781 726.575C349.356 733.449 360.927 733.397 368.44 726.455L394.625 702.261C401.948 695.495 413.168 695.252 420.776 701.697L451.514 727.731C458.971 734.048 469.928 733.956 477.278 727.515L506.838 701.616C514.188 695.176 525.144 695.084 532.602 701.4L566.984 730.521C572.882 735.516 581.152 736.61 588.145 733.319L628 714.566V1319.82C628 1433.67 535.704 1525.97 421.851 1525.97H391.149C277.296 1525.97 185 1433.67 185 1319.82Z" fill="#F8F8F8"/>
<path d="M185 1319.82L185 714.566L233.842 734.265C240.637 737.005 248.391 735.757 253.981 731.021L288.724 701.595C296.281 695.194 307.411 695.385 314.745 702.04L341.781 726.575C349.356 733.449 360.927 733.397 368.44 726.455L394.625 702.261C401.948 695.495 413.168 695.252 420.776 701.697L451.514 727.731C458.971 734.048 469.928 733.956 477.278 727.515L506.838 701.616C514.188 695.176 525.144 695.084 532.602 701.4L566.984 730.521C572.882 735.516 581.152 736.61 588.145 733.319L628 714.566V1319.82C628 1433.67 535.704 1525.97 421.851 1525.97H391.149C277.296 1525.97 185 1433.67 185 1319.82Z" stroke="#F8F8F8" stroke-width="19.7376"/>
<path d="M185 1319.82L185 714.566L233.842 734.265C240.637 737.005 248.391 735.757 253.981 731.021L288.724 701.595C296.281 695.194 307.411 695.385 314.745 702.04L341.781 726.575C349.356 733.449 360.927 733.397 368.44 726.455L394.625 702.261C401.948 695.495 413.168 695.252 420.776 701.697L451.514 727.731C458.971 734.048 469.928 733.956 477.278 727.515L506.838 701.616C514.188 695.176 525.144 695.084 532.602 701.4L566.984 730.521C572.882 735.516 581.152 736.61 588.145 733.319L628 714.566V1319.82C628 1433.67 535.704 1525.97 421.851 1525.97H391.149C277.296 1525.97 185 1433.67 185 1319.82Z" stroke="#F8F8F8" stroke-width="19.7376"/>
</g>
<rect x="11.5" y="11.5" width="791" height="791" rx="395.5" stroke="#F8F8F8" stroke-width="23"/>
<defs>
<clipPath id="clip0_484_2">
<rect width="814" height="814" rx="407" fill="white"/>
</clipPath>
</defs>
</svg>
