<svg width="513" height="513" viewBox="0 0 513 513" fill="none" xmlns="http://www.w3.org/2000/svg">
<path d="M444.451 32.7051H70.5612C50.1312 32.7051 32.2812 47.4051 32.2812 67.5951V442.315C32.2812 462.615 50.1312 480.705 70.5612 480.705H444.341C464.881 480.705 480.281 462.495 480.281 442.315V67.5951C480.401 47.4051 464.881 32.7051 444.451 32.7051ZM171.151 406.135H106.971V206.585H171.151V406.135ZM141.281 176.245H140.821C120.281 176.245 106.981 160.955 106.981 141.815C106.981 122.325 120.631 107.395 141.631 107.395C162.631 107.395 175.481 122.215 175.941 141.815C175.931 160.955 162.631 176.245 141.281 176.245ZM405.711 406.135H341.531V297.025C341.531 270.885 332.191 253.025 308.971 253.025C291.231 253.025 280.731 265.025 276.061 276.715C274.311 280.915 273.841 286.635 273.841 292.475V406.135H209.661V206.585H273.841V234.355C283.181 221.055 297.771 201.915 331.721 201.915C373.851 201.915 405.721 229.685 405.721 289.555L405.711 406.135Z" fill="#F8F8F8"/>
</svg>
